<svg width="1440" height="920" viewBox="0 0 1440 920" fill="none" xmlns="http://www.w3.org/2000/svg">
  <rect width="1440" height="920" fill="#F8FAFC"/>
  <rect x="40" y="40" width="1360" height="840" rx="46" fill="#FFFFFF" stroke="#DDE7EF" stroke-width="2"/>
  <circle cx="1180" cy="180" r="220" fill="#43B8BA" fill-opacity="0.14"/>
  <circle cx="250" cy="720" r="260" fill="#8B5CF6" fill-opacity="0.10"/>
  <circle cx="990" cy="730" r="190" fill="#EB6E25" fill-opacity="0.10"/>
  <g opacity="0.5">
    <path d="M108 178H1332" stroke="#E7EEF5"/>
    <path d="M108 300H1332" stroke="#EEF3F8"/>
    <path d="M108 422H1332" stroke="#EEF3F8"/>
    <path d="M108 544H1332" stroke="#EEF3F8"/>
    <path d="M108 666H1332" stroke="#EEF3F8"/>
    <path d="M108 788H1332" stroke="#EEF3F8"/>
    <path d="M190 108V812" stroke="#EEF3F8"/>
    <path d="M380 108V812" stroke="#EEF3F8"/>
    <path d="M570 108V812" stroke="#EEF3F8"/>
    <path d="M760 108V812" stroke="#EEF3F8"/>
    <path d="M950 108V812" stroke="#EEF3F8"/>
    <path d="M1140 108V812" stroke="#EEF3F8"/>
  </g>
  <rect x="92" y="92" width="1256" height="104" rx="28" fill="#FFFFFF" stroke="#DCE7F0"/>
  <rect x="120" y="118" width="54" height="54" rx="16" fill="#ECFEFF" stroke="#A7F3F7"/>
  <path d="M148 131L154 146L169 152L154 158L148 173L142 158L127 152L142 146L148 131Z" fill="#176A74"/>
  <text x="196" y="136" fill="#0F172A" font-family="Inter, Arial, sans-serif" font-size="20" font-weight="800" letter-spacing="0.12em">AETHER AI</text>
  <text x="196" y="164" fill="#64748B" font-family="Inter, Arial, sans-serif" font-size="15">Neural intelligence operating system</text>
  <rect x="1058" y="120" width="130" height="48" rx="16" fill="#F1F5F9" stroke="#D9E4EE"/>
  <text x="1100" y="151" fill="#334155" font-family="Inter, Arial, sans-serif" font-size="15" font-weight="700">⌘K</text>
  <rect x="1202" y="120" width="116" height="48" rx="16" fill="#176A74"/>
  <text x="1230" y="151" fill="#FFFFFF" font-family="Inter, Arial, sans-serif" font-size="15" font-weight="800">Ready</text>
  <text x="118" y="283" fill="#176A74" font-family="Inter, Arial, sans-serif" font-size="15" font-weight="800" letter-spacing="0.22em">AI COMMAND CENTER</text>
  <text x="118" y="370" fill="#0F172A" font-family="Inter, Arial, sans-serif" font-size="74" font-weight="900">Build with intelligence.</text>
  <text x="118" y="442" fill="#0F172A" font-family="Inter, Arial, sans-serif" font-size="74" font-weight="900">Move with clarity.</text>
  <text x="122" y="502" fill="#475569" font-family="Inter, Arial, sans-serif" font-size="24">A cinematic AI workspace with copilot, memory, analytics, voice and modular mission control.</text>
  <rect x="118" y="560" width="178" height="58" rx="20" fill="#176A74"/>
  <text x="153" y="596" fill="#FFFFFF" font-family="Inter, Arial, sans-serif" font-size="16" font-weight="800">Open system</text>
  <rect x="316" y="560" width="188" height="58" rx="20" fill="#FFFFFF" stroke="#CBD5E1"/>
  <text x="352" y="596" fill="#334155" font-family="Inter, Arial, sans-serif" font-size="16" font-weight="800">AI modules</text>
  <rect x="118" y="682" width="260" height="110" rx="24" fill="#FFFFFF" stroke="#DDE7EF"/>
  <text x="146" y="723" fill="#64748B" font-family="Inter, Arial, sans-serif" font-size="14" font-weight="700" letter-spacing="0.12em">COPILOT</text>
  <text x="146" y="764" fill="#0F172A" font-family="Inter, Arial, sans-serif" font-size="34" font-weight="900">Active</text>
  <rect x="404" y="682" width="260" height="110" rx="24" fill="#FFFFFF" stroke="#DDE7EF"/>
  <text x="432" y="723" fill="#64748B" font-family="Inter, Arial, sans-serif" font-size="14" font-weight="700" letter-spacing="0.12em">MEMORY</text>
  <text x="432" y="764" fill="#0F172A" font-family="Inter, Arial, sans-serif" font-size="34" font-weight="900">Vault</text>
  <rect x="690" y="682" width="260" height="110" rx="24" fill="#FFFFFF" stroke="#DDE7EF"/>
  <text x="718" y="723" fill="#64748B" font-family="Inter, Arial, sans-serif" font-size="14" font-weight="700" letter-spacing="0.12em">ANALYTICS</text>
  <text x="718" y="764" fill="#0F172A" font-family="Inter, Arial, sans-serif" font-size="34" font-weight="900">Neural</text>
  <rect x="820" y="246" width="454" height="350" rx="34" fill="#0F172A"/>
  <rect x="844" y="270" width="406" height="302" rx="26" fill="#111827" stroke="#254257"/>
  <circle cx="1047" cy="421" r="92" fill="#43B8BA" fill-opacity="0.20"/>
  <circle cx="1047" cy="421" r="58" fill="#176A74"/>
  <path d="M1047 345V497M971 421H1123M993 367L1101 475M1101 367L993 475" stroke="#BFF7F8" stroke-width="6" stroke-linecap="round"/>
  <rect x="874" y="296" width="126" height="44" rx="16" fill="#172033" stroke="#2B4458"/>
  <text x="902" y="324" fill="#43B8BA" font-family="Inter, Arial, sans-serif" font-size="13" font-weight="800">Research</text>
  <rect x="1020" y="296" width="96" height="44" rx="16" fill="#172033" stroke="#2B4458"/>
  <text x="1046" y="324" fill="#F8FAFC" font-family="Inter, Arial, sans-serif" font-size="13" font-weight="800">Voice</text>
  <rect x="1134" y="296" width="86" height="44" rx="16" fill="#EB6E25" fill-opacity="0.16" stroke="#EB6E25"/>
  <text x="1158" y="324" fill="#FDBA74" font-family="Inter, Arial, sans-serif" font-size="13" font-weight="800">Live</text>
  <rect x="876" y="514" width="344" height="22" rx="11" fill="#1F2937"/>
  <rect x="876" y="514" width="236" height="22" rx="11" fill="url(#paint0_linear)"/>
  <defs>
    <linearGradient id="paint0_linear" x1="876" y1="525" x2="1112" y2="525" gradientUnits="userSpaceOnUse">
      <stop stop-color="#43B8BA"/>
      <stop offset="1" stop-color="#8B5CF6"/>
    </linearGradient>
  </defs>
</svg>
